<svg width="51" height="49" viewBox="0 0 51 49" fill="none" xmlns="http://www.w3.org/2000/svg">
<path d="M32.3003 24.5833C32.3003 28.1818 29.3011 31.0992 25.6018 31.0992C21.9025 31.0992 18.9048 28.1818 18.9048 24.5833C18.9048 20.9849 21.9025 18.0688 25.6018 18.0688C29.3011 18.0688 32.3003 20.9849 32.3003 24.5833Z" fill="#011739"/>
<path d="M42.2152 0.291992H8.98847C4.37127 0.291992 0.628418 3.93277 0.628418 8.42406V40.7432C0.628418 45.2345 4.37127 48.8767 8.98847 48.8767H42.2152C46.8324 48.8767 50.5752 45.2345 50.5752 40.7432V8.42406C50.5752 3.93277 46.8324 0.291992 42.2152 0.291992ZM44.449 33.0025C44.449 38.4559 39.8623 42.9175 34.2574 42.9175H16.9462C11.3399 42.9175 6.75321 38.4559 6.75321 33.0025V16.1648C6.75321 10.7114 11.3399 6.24976 16.9462 6.24976H34.2574C39.8623 6.24976 44.449 10.7114 44.449 16.1648V33.0025ZM34.3663 9.29152H16.8358C13.0102 9.29152 9.88024 12.3361 9.88024 16.0574V33.1099C9.88024 36.8312 13.0102 39.8758 16.8358 39.8758H34.3663C38.192 39.8758 41.3234 36.8312 41.3234 33.1099V16.0574C41.3234 12.3361 38.1905 9.29152 34.3663 9.29152ZM25.6011 34.2203C20.1313 34.2203 15.6957 29.9057 15.6957 24.5836C15.6957 19.2616 20.1313 14.9469 25.6011 14.9469C31.0723 14.9469 35.5079 19.2616 35.5079 24.5836C35.5079 29.9057 31.0708 34.2203 25.6011 34.2203ZM35.8071 16.5547C34.6205 16.5547 33.6576 15.618 33.6576 14.4638C33.6576 13.3095 34.6205 12.3728 35.8071 12.3728C36.9952 12.3728 37.9567 13.3095 37.9567 14.4638C37.9552 15.618 36.9952 16.5547 35.8071 16.5547Z" fill="#011739"/>
</svg>
