<svg width="50" height="49" viewBox="0 0 50 49" fill="none" xmlns="http://www.w3.org/2000/svg">
<path d="M41.6953 0.291992H8.68812C4.10143 0.291992 0.383301 3.90872 0.383301 8.37034V40.476C0.383301 44.9376 4.10143 48.5557 8.68812 48.5557H41.6953C46.282 48.5557 50.0002 44.9376 50.0002 40.476V8.37034C50.0002 3.90872 46.282 0.291992 41.6953 0.291992ZM15.7089 40.5967C13.585 40.5883 11.4612 40.5911 9.33739 40.5911H9.07192V19.2823C9.07192 18.9679 9.07191 18.9665 9.39366 18.9665C11.4872 18.9665 13.5807 18.9665 15.6742 18.9679C15.996 18.9679 15.9989 18.9693 15.9989 19.2739C15.9989 26.2856 15.9974 33.2987 16.0032 40.3118C16.0032 40.5363 15.9411 40.5981 15.7089 40.5967ZM12.5332 16.0852C10.2594 16.095 8.52365 14.314 8.51787 12.1485C8.5121 10.0292 10.3474 8.20894 12.5462 8.25104C14.7494 8.23981 16.5789 9.95906 16.5789 12.1499C16.5789 14.3519 14.8504 16.074 12.5332 16.0852ZM41.8627 40.2641V40.5911H35.1926C34.891 40.5911 34.891 40.5911 34.891 40.302C34.8896 36.5477 34.8939 32.792 34.8853 29.0378C34.8838 28.0539 34.7872 27.0785 34.3817 26.1607C33.9099 25.094 33.0587 24.5326 31.8784 24.4077C31.196 24.3347 30.5309 24.3881 29.8773 24.5705C28.7447 24.8891 28.0406 25.6428 27.651 26.6996C27.3884 27.4125 27.2456 28.1522 27.2412 28.9072C27.221 32.6896 27.2109 36.4719 27.1965 40.2542C27.1951 40.6346 27.2326 40.5911 26.8575 40.5911C24.7567 40.5925 22.656 40.5883 20.5538 40.5953C20.3417 40.5967 20.2667 40.5476 20.2667 40.3272C20.2725 33.3001 20.2725 26.2729 20.2681 19.2444C20.2681 19.0325 20.3374 18.9623 20.5567 18.9637C22.581 18.9693 24.6067 18.9665 26.6309 18.9679C26.9166 18.9679 26.9224 18.9749 26.9224 19.2584V21.7018C26.9238 21.7776 26.9325 21.852 26.9368 21.9278C26.9556 21.9306 26.9729 21.932 26.9902 21.9348C27.0912 21.7833 27.1907 21.6317 27.2932 21.4801C27.8905 20.5987 28.6884 19.9265 29.6291 19.4142C30.7675 18.7939 31.9924 18.4949 33.2982 18.4669C34.6256 18.4374 35.9226 18.5665 37.1822 19.0002C38.5976 19.4872 39.6826 20.3587 40.4502 21.612C41.0634 22.6155 41.3923 23.7158 41.577 24.8568C41.6939 25.5824 41.7877 26.3178 41.8064 27.0519C41.8526 28.8188 41.8555 30.5872 41.8613 32.3555C41.8685 34.9927 41.8627 37.6284 41.8627 40.2641Z" fill="#011739"/>
</svg>
